# xmcd
#
# Track frame offsets:
#	150
#	20375
#	35952
#	52595
#	79580
#	101946
#	123945
#	141336
#	157689
#	182765
#	202273
#	225782
#
# Disc length: 3161 seconds
#
# Revision: 0
# Processed by: cddbd v1.5.2PL0 Copyright (c) Steve Scherf et al.
# Submitted via: dBpowerAMP V4.0
#
DISCID=940c570c
DTITLE=Kent Thomsen og de dyre drenge - Så'n er dét
DYEAR=2012
DGENRE=Blues
TTITLE0=Så'n er dét
TTITLE1=Plovstævn' boogie
TTITLE2=Hvorfor gør folk så'n noget
TTITLE3=Fisker Blues
TTITLE4=Godt nyt i dag
TTITLE5=Sangen om Larsen
TTITLE6=Hel're ryge hash
TTITLE7=Karbonaden i mit liv
TTITLE8=Hvorfor hvorfor
TTITLE9=Logre and Savle
TTITLE10=Bussemand Blues
TTITLE11=Skraldemand Blues
EXTD=
EXTT0=
EXTT1=
EXTT2=
EXTT3=
EXTT4=
EXTT5=
EXTT6=
EXTT7=
EXTT8=
EXTT9=
EXTT10=
EXTT11=
PLAYORDER=
